<svg width="1546pt" height="3039pt"
 viewBox="0.00 0.00 1546.29 3039.46" xmlns="http://www.w3.org/2000/svg" xmlns:xlink="http://www.w3.org/1999/xlink">
<g id="graph0" class="graph" transform="scale(1 1) rotate(0) translate(14.4 3025.0597)">
<title>%0</title>
<polygon fill="#ffffff" stroke="transparent" points="-14.4,14.4 -14.4,-3025.0597 1531.887,-3025.0597 1531.887,14.4 -14.4,14.4"/>
<!-- knife -->
<g id="node1" class="node">
<title>knife</title>
<ellipse fill="#ff6200" stroke="#ff6200" cx="513.995" cy="-2748.2224" rx="43.0558" ry="43.0558"/>
<text text-anchor="middle" x="513.995" y="-2741.6224" font-family="ING Me" font-size="22.00" fill="#ffffff">knife</text>
</g>
<!-- ChopCarrot -->
<g id="node2" class="node">
<title>ChopCarrot</title>
<path fill="#525199" stroke="#525199" stroke-width="2" d="M1082.8658,-2626.7859C1082.8658,-2626.7859 931.1242,-2626.7859 931.1242,-2626.7859 925.1242,-2626.7859 919.1242,-2620.7859 919.1242,-2614.7859 919.1242,-2614.7859 919.1242,-2539.9843 919.1242,-2539.9843 919.1242,-2533.9843 925.1242,-2527.9843 931.1242,-2527.9843 931.1242,-2527.9843 1082.8658,-2527.9843 1082.8658,-2527.9843 1088.8658,-2527.9843 1094.8658,-2533.9843 1094.8658,-2539.9843 1094.8658,-2539.9843 1094.8658,-2614.7859 1094.8658,-2614.7859 1094.8658,-2620.7859 1088.8658,-2626.7859 1082.8658,-2626.7859"/>
<text text-anchor="middle" x="1006.995" y="-2570.7851" font-family="ING Me" font-size="22.00" fill="#ffffff">ChopCarrot</text>
</g>
<!-- knife&#45;&gt;ChopCarrot -->
<g id="edge1" class="edge">
<title>knife&#45;&gt;ChopCarrot</title>
<path fill="none" stroke="#000000" d="M547.1746,-2720.1115C571.0274,-2701.2548 604.7254,-2677.2696 637.995,-2662.5851 725.4937,-2623.965 832.7001,-2601.7252 908.9641,-2589.72"/>
<polygon fill="#000000" stroke="#000000" points="909.6956,-2593.1486 919.0447,-2588.1643 908.6279,-2586.2305 909.6956,-2593.1486"/>
</g>
<!-- ChopOnion -->
<g id="node18" class="node">
<title>ChopOnion</title>
<path fill="#525199" stroke="#525199" stroke-width="2" d="M589.1627,-2626.7859C589.1627,-2626.7859 438.8273,-2626.7859 438.8273,-2626.7859 432.8273,-2626.7859 426.8273,-2620.7859 426.8273,-2614.7859 426.8273,-2614.7859 426.8273,-2539.9843 426.8273,-2539.9843 426.8273,-2533.9843 432.8273,-2527.9843 438.8273,-2527.9843 438.8273,-2527.9843 589.1627,-2527.9843 589.1627,-2527.9843 595.1627,-2527.9843 601.1627,-2533.9843 601.1627,-2539.9843 601.1627,-2539.9843 601.1627,-2614.7859 601.1627,-2614.7859 601.1627,-2620.7859 595.1627,-2626.7859 589.1627,-2626.7859"/>
<text text-anchor="middle" x="513.995" y="-2570.7851" font-family="ING Me" font-size="22.00" fill="#ffffff">ChopOnion</text>
</g>
<!-- knife&#45;&gt;ChopOnion -->
<g id="edge2" class="edge">
<title>knife&#45;&gt;ChopOnion</title>
<path fill="none" stroke="#000000" d="M513.995,-2704.6709C513.995,-2684.0105 513.995,-2659.0088 513.995,-2636.6522"/>
<polygon fill="#000000" stroke="#000000" points="517.4951,-2636.5915 513.995,-2626.5915 510.4951,-2636.5915 517.4951,-2636.5915"/>
</g>
<!-- CarrotChopped -->
<g id="node3" class="node">
<title>CarrotChopped</title>
<path fill="#767676" stroke="#767676" d="M807.8191,-2487.7149C807.8191,-2487.7149 650.3976,-2426.1554 650.3976,-2426.1554 644.8096,-2423.9703 644.8096,-2419.6 650.3976,-2417.4148 650.3976,-2417.4148 807.8191,-2355.8553 807.8191,-2355.8553 813.4071,-2353.6701 824.5829,-2353.6701 830.1709,-2355.8553 830.1709,-2355.8553 987.5924,-2417.4148 987.5924,-2417.4148 993.1804,-2419.6 993.1804,-2423.9703 987.5924,-2426.1554 987.5924,-2426.1554 830.1709,-2487.7149 830.1709,-2487.7149 824.5829,-2489.9001 813.4071,-2489.9001 807.8191,-2487.7149"/>
<text text-anchor="middle" x="818.995" y="-2415.1851" font-family="ING Me" font-size="22.00" fill="#ffffff">CarrotChopped</text>
</g>
<!-- ChopCarrot&#45;&gt;CarrotChopped -->
<g id="edge3" class="edge">
<title>ChopCarrot&#45;&gt;CarrotChopped</title>
<path fill="none" stroke="#000000" d="M947.5106,-2528.1523C927.4791,-2511.573 905.0191,-2492.9838 884.5467,-2476.0396"/>
<polygon fill="#000000" stroke="#000000" points="886.7423,-2473.3135 876.807,-2469.6338 882.2791,-2478.7061 886.7423,-2473.3135"/>
</g>
<!-- FingerCut -->
<g id="node17" class="node">
<title>FingerCut</title>
<path fill="#767676" stroke="#767676" d="M1139.3783,-2486.492C1139.3783,-2486.492 1027.1738,-2427.3784 1027.1738,-2427.3784 1021.8654,-2424.5818 1021.8654,-2418.9885 1027.1738,-2416.1918 1027.1738,-2416.1918 1139.3783,-2357.0783 1139.3783,-2357.0783 1144.6866,-2354.2816 1155.3034,-2354.2816 1160.6117,-2357.0783 1160.6117,-2357.0783 1272.8162,-2416.1918 1272.8162,-2416.1918 1278.1246,-2418.9885 1278.1246,-2424.5818 1272.8162,-2427.3784 1272.8162,-2427.3784 1160.6117,-2486.492 1160.6117,-2486.492 1155.3034,-2489.2886 1144.6866,-2489.2886 1139.3783,-2486.492"/>
<text text-anchor="middle" x="1149.995" y="-2415.1851" font-family="ING Me" font-size="22.00" fill="#ffffff">FingerCut</text>
</g>
<!-- ChopCarrot&#45;&gt;FingerCut -->
<g id="edge4" class="edge">
<title>ChopCarrot&#45;&gt;FingerCut</title>
<path fill="none" stroke="#000000" d="M1052.2411,-2528.1523C1067.2132,-2511.861 1083.9689,-2493.6289 1099.3211,-2476.924"/>
<polygon fill="#000000" stroke="#000000" points="1102.0749,-2479.1 1106.2646,-2469.3687 1096.9209,-2474.3633 1102.0749,-2479.1"/>
</g>
<!-- choppedCarrot -->
<g id="node4" class="node">
<title>choppedCarrot</title>
<ellipse fill="#ff6200" stroke="#ff6200" cx="952.995" cy="-2211.6309" rx="103.509" ry="103.509"/>
<text text-anchor="middle" x="952.995" y="-2205.0309" font-family="ING Me" font-size="22.00" fill="#ffffff">choppedCarrot</text>
</g>
<!-- CarrotChopped&#45;&gt;choppedCarrot -->
<g id="edge5" class="edge">
<title>CarrotChopped&#45;&gt;choppedCarrot</title>
<path fill="none" stroke="#000000" d="M854.9045,-2365.4676C866.1822,-2347.7807 878.9699,-2327.7255 891.4992,-2308.0757"/>
<polygon fill="#000000" stroke="#000000" points="894.6136,-2309.7014 897.0388,-2299.3879 888.7113,-2305.9379 894.6136,-2309.7014"/>
</g>
<!-- FryVegetables -->
<g id="node5" class="node">
<title>FryVegetables</title>
<path fill="#525199" stroke="#525199" stroke-width="2" d="M859.2772,-2028.7612C859.2772,-2028.7612 682.7128,-2028.7612 682.7128,-2028.7612 676.7128,-2028.7612 670.7128,-2022.7612 670.7128,-2016.7612 670.7128,-2016.7612 670.7128,-1941.9596 670.7128,-1941.9596 670.7128,-1935.9596 676.7128,-1929.9596 682.7128,-1929.9596 682.7128,-1929.9596 859.2772,-1929.9596 859.2772,-1929.9596 865.2772,-1929.9596 871.2772,-1935.9596 871.2772,-1941.9596 871.2772,-1941.9596 871.2772,-2016.7612 871.2772,-2016.7612 871.2772,-2022.7612 865.2772,-2028.7612 859.2772,-2028.7612"/>
<text text-anchor="middle" x="770.995" y="-1972.7604" font-family="ING Me" font-size="22.00" fill="#ffffff">FryVegetables</text>
</g>
<!-- choppedCarrot&#45;&gt;FryVegetables -->
<g id="edge6" class="edge">
<title>choppedCarrot&#45;&gt;FryVegetables</title>
<path fill="none" stroke="#000000" d="M888.8286,-2129.741C864.7967,-2099.0713 838.0228,-2064.9021 816.077,-2036.8946"/>
<polygon fill="#000000" stroke="#000000" points="818.6493,-2034.5027 809.7265,-2028.79 813.1393,-2038.8201 818.6493,-2034.5027"/>
</g>
<!-- VegetablesFried -->
<g id="node6" class="node">
<title>VegetablesFried</title>
<path fill="#767676" stroke="#767676" d="M810.7528,-1829.5929C810.7528,-1829.5929 644.9139,-1767.6861 644.9139,-1767.6861 639.2928,-1765.5877 639.2928,-1761.3911 644.9139,-1759.2927 644.9139,-1759.2927 810.7528,-1697.3859 810.7528,-1697.3859 816.3739,-1695.2876 827.6161,-1695.2876 833.2372,-1697.3859 833.2372,-1697.3859 999.0761,-1759.2927 999.0761,-1759.2927 1004.6972,-1761.3911 1004.6972,-1765.5877 999.0761,-1767.6861 999.0761,-1767.6861 833.2372,-1829.5929 833.2372,-1829.5929 827.6161,-1831.6912 816.3739,-1831.6912 810.7528,-1829.5929"/>
<text text-anchor="middle" x="821.995" y="-1756.8894" font-family="ING Me" font-size="22.00" fill="#ffffff">VegetablesFried</text>
</g>
<!-- FryVegetables&#45;&gt;VegetablesFried -->
<g id="edge7" class="edge">
<title>FryVegetables&#45;&gt;VegetablesFried</title>
<path fill="none" stroke="#000000" d="M782.6315,-1930.1058C789.0777,-1902.8204 797.2222,-1868.3469 804.428,-1837.8463"/>
<polygon fill="#000000" stroke="#000000" points="807.8382,-1838.6342 806.7312,-1828.0973 801.0257,-1837.0246 807.8382,-1838.6342"/>
</g>
<!-- friedVegetables -->
<g id="node7" class="node">
<title>friedVegetables</title>
<ellipse fill="#ff6200" stroke="#ff6200" cx="845.995" cy="-1530.3524" rx="109.565" ry="109.565"/>
<text text-anchor="middle" x="845.995" y="-1523.7524" font-family="ING Me" font-size="22.00" fill="#ffffff">friedVegetables</text>
</g>
<!-- VegetablesFried&#45;&gt;friedVegetables -->
<g id="edge8" class="edge">
<title>VegetablesFried&#45;&gt;friedVegetables</title>
<path fill="none" stroke="#000000" d="M828.969,-1695.7434C830.4449,-1681.4064 832.0446,-1665.8668 833.6526,-1650.2475"/>
<polygon fill="#000000" stroke="#000000" points="837.1666,-1650.2895 834.7091,-1639.9837 830.2034,-1649.5726 837.1666,-1650.2895"/>
</g>
<!-- FryMeat -->
<g id="node8" class="node">
<title>FryMeat</title>
<path fill="#525199" stroke="#525199" stroke-width="2" d="M941.75,-1384.771C941.75,-1384.771 818.24,-1384.771 818.24,-1384.771 812.24,-1384.771 806.24,-1378.771 806.24,-1372.771 806.24,-1372.771 806.24,-1297.9693 806.24,-1297.9693 806.24,-1291.9693 812.24,-1285.9693 818.24,-1285.9693 818.24,-1285.9693 941.75,-1285.9693 941.75,-1285.9693 947.75,-1285.9693 953.75,-1291.9693 953.75,-1297.9693 953.75,-1297.9693 953.75,-1372.771 953.75,-1372.771 953.75,-1378.771 947.75,-1384.771 941.75,-1384.771"/>
<text text-anchor="middle" x="879.995" y="-1328.7701" font-family="ING Me" font-size="22.00" fill="#ffffff">FryMeat</text>
</g>
<!-- friedVegetables&#45;&gt;FryMeat -->
<g id="edge9" class="edge">
<title>friedVegetables&#45;&gt;FryMeat</title>
<path fill="none" stroke="#000000" d="M864.8841,-1422.0277C866.51,-1412.7034 868.1126,-1403.513 869.6313,-1394.8033"/>
<polygon fill="#000000" stroke="#000000" points="873.1022,-1395.2731 871.3721,-1384.8205 866.2062,-1394.0706 873.1022,-1395.2731"/>
</g>
<!-- MeatFried -->
<g id="node9" class="node">
<title>MeatFried</title>
<path fill="#767676" stroke="#767676" d="M937.3388,-1244.5526C937.3388,-1244.5526 822.8823,-1185.2878 822.8823,-1185.2878 817.5542,-1182.529 817.5542,-1177.0113 822.8823,-1174.2524 822.8823,-1174.2524 937.3388,-1114.9877 937.3388,-1114.9877 942.6669,-1112.2289 953.3231,-1112.2289 958.6512,-1114.9877 958.6512,-1114.9877 1073.1077,-1174.2524 1073.1077,-1174.2524 1078.4358,-1177.0113 1078.4358,-1182.529 1073.1077,-1185.2878 1073.1077,-1185.2878 958.6512,-1244.5526 958.6512,-1244.5526 953.3231,-1247.3114 942.6669,-1247.3114 937.3388,-1244.5526"/>
<text text-anchor="middle" x="947.995" y="-1173.1701" font-family="ING Me" font-size="22.00" fill="#ffffff">MeatFried</text>
</g>
<!-- FryMeat&#45;&gt;MeatFried -->
<g id="edge10" class="edge">
<title>FryMeat&#45;&gt;MeatFried</title>
<path fill="none" stroke="#000000" d="M901.5106,-1286.1373C907.0431,-1273.4777 913.0878,-1259.6461 918.9334,-1246.2699"/>
<polygon fill="#000000" stroke="#000000" points="922.1425,-1247.6669 922.9399,-1237.1021 915.7282,-1244.8637 922.1425,-1247.6669"/>
</g>
<!-- friedMeatAndVegetables -->
<g id="node10" class="node">
<title>friedMeatAndVegetables</title>
<ellipse fill="#ff6200" stroke="#ff6200" cx="1004.995" cy="-904.8393" rx="168.5617" ry="168.5617"/>
<text text-anchor="middle" x="1004.995" y="-898.2393" font-family="ING Me" font-size="22.00" fill="#ffffff">friedMeatAndVegetables</text>
</g>
<!-- MeatFried&#45;&gt;friedMeatAndVegetables -->
<g id="edge11" class="edge">
<title>MeatFried&#45;&gt;friedMeatAndVegetables</title>
<path fill="none" stroke="#000000" d="M961.2152,-1116.0044C963.5608,-1104.6911 966.1023,-1092.4321 968.7398,-1079.7106"/>
<polygon fill="#000000" stroke="#000000" points="972.1707,-1080.4025 970.7738,-1069.9002 965.3165,-1078.9814 972.1707,-1080.4025"/>
</g>
<!-- CreateRagu -->
<g id="node11" class="node">
<title>CreateRagu</title>
<path fill="#525199" stroke="#525199" stroke-width="2" d="M1207.8395,-700.5093C1207.8395,-700.5093 1056.1505,-700.5093 1056.1505,-700.5093 1050.1505,-700.5093 1044.1505,-694.5093 1044.1505,-688.5093 1044.1505,-688.5093 1044.1505,-613.7076 1044.1505,-613.7076 1044.1505,-607.7076 1050.1505,-601.7076 1056.1505,-601.7076 1056.1505,-601.7076 1207.8395,-601.7076 1207.8395,-601.7076 1213.8395,-601.7076 1219.8395,-607.7076 1219.8395,-613.7076 1219.8395,-613.7076 1219.8395,-688.5093 1219.8395,-688.5093 1219.8395,-694.5093 1213.8395,-700.5093 1207.8395,-700.5093"/>
<text text-anchor="middle" x="1131.995" y="-644.5085" font-family="ING Me" font-size="22.00" fill="#ffffff">CreateRagu</text>
</g>
<!-- friedMeatAndVegetables&#45;&gt;CreateRagu -->
<g id="edge12" class="edge">
<title>friedMeatAndVegetables&#45;&gt;CreateRagu</title>
<path fill="none" stroke="#000000" d="M1080.5223,-753.9447C1088.3558,-738.2943 1095.9359,-723.1503 1102.7618,-709.5129"/>
<polygon fill="#000000" stroke="#000000" points="1106.0146,-710.8337 1107.3608,-700.3247 1099.755,-707.7005 1106.0146,-710.8337"/>
</g>
<!-- RaguCreated -->
<g id="node12" class="node">
<title>RaguCreated</title>
<path fill="#767676" stroke="#767676" d="M676.0234,-560.9481C676.0234,-560.9481 539.2776,-500.3689 539.2776,-500.3689 533.7918,-497.9387 533.7918,-493.0782 539.2776,-490.648 539.2776,-490.648 676.0234,-430.0688 676.0234,-430.0688 681.5092,-427.6386 692.4808,-427.6386 697.9666,-430.0688 697.9666,-430.0688 834.7124,-490.648 834.7124,-490.648 840.1982,-493.0782 840.1982,-497.9387 834.7124,-500.3689 834.7124,-500.3689 697.9666,-560.9481 697.9666,-560.9481 692.4808,-563.3784 681.5092,-563.3784 676.0234,-560.9481"/>
<text text-anchor="middle" x="686.995" y="-488.9085" font-family="ING Me" font-size="22.00" fill="#ffffff">RaguCreated</text>
</g>
<!-- CreateRagu&#45;&gt;RaguCreated -->
<g id="edge13" class="edge">
<title>CreateRagu&#45;&gt;RaguCreated</title>
<path fill="none" stroke="#000000" d="M1044.0773,-620.3669C969.6269,-594.3344 862.9747,-557.0421 785.63,-529.9975"/>
<polygon fill="#000000" stroke="#000000" points="786.4664,-526.5822 775.8716,-526.5853 784.1559,-533.1899 786.4664,-526.5822"/>
</g>
<!-- ragu -->
<g id="node13" class="node">
<title>ragu</title>
<ellipse fill="#ff6200" stroke="#ff6200" cx="574.995" cy="-350.1542" rx="38.9085" ry="38.9085"/>
<text text-anchor="middle" x="574.995" y="-343.5542" font-family="ING Me" font-size="22.00" fill="#ffffff">ragu</text>
</g>
<!-- RaguCreated&#45;&gt;ragu -->
<g id="edge14" class="edge">
<title>RaguCreated&#45;&gt;ragu</title>
<path fill="none" stroke="#000000" d="M646.5604,-443.0322C633.0076,-425.4434 618.1336,-406.1397 605.4734,-389.7092"/>
<polygon fill="#000000" stroke="#000000" points="607.9495,-387.1883 599.0734,-381.4033 602.4046,-391.4608 607.9495,-387.1883"/>
</g>
<!-- ServeSpaghetti -->
<g id="node14" class="node">
<title>ServeSpaghetti</title>
<path fill="#525199" stroke="#525199" stroke-width="2" d="M571.6831,-275.4008C571.6831,-275.4008 390.3069,-275.4008 390.3069,-275.4008 384.3069,-275.4008 378.3069,-269.4008 378.3069,-263.4008 378.3069,-263.4008 378.3069,-188.5992 378.3069,-188.5992 378.3069,-182.5992 384.3069,-176.5992 390.3069,-176.5992 390.3069,-176.5992 571.6831,-176.5992 571.6831,-176.5992 577.6831,-176.5992 583.6831,-182.5992 583.6831,-188.5992 583.6831,-188.5992 583.6831,-263.4008 583.6831,-263.4008 583.6831,-269.4008 577.6831,-275.4008 571.6831,-275.4008"/>
<text text-anchor="middle" x="480.995" y="-219.4" font-family="ING Me" font-size="22.00" fill="#ffffff">ServeSpaghetti</text>
</g>
<!-- ragu&#45;&gt;ServeSpaghetti -->
<g id="edge15" class="edge">
<title>ragu&#45;&gt;ServeSpaghetti</title>
<path fill="none" stroke="#000000" d="M551.2748,-318.8249C543.0656,-307.9822 533.5888,-295.4653 524.3051,-283.2035"/>
<polygon fill="#000000" stroke="#000000" points="527.0743,-281.0627 518.2475,-275.2028 521.4934,-285.2882 527.0743,-281.0627"/>
</g>
<!-- HappyCustomer -->
<g id="node15" class="node">
<title>HappyCustomer</title>
<path fill="#767676" stroke="#767676" d="M285.7523,-136.5047C285.7523,-136.5047 119.8527,-74.5955 119.8527,-74.5955 114.2313,-72.4977 114.2313,-68.3023 119.8527,-66.2045 119.8527,-66.2045 285.7523,-4.2953 285.7523,-4.2953 291.3737,-2.1976 302.6163,-2.1976 308.2377,-4.2953 308.2377,-4.2953 474.1373,-66.2045 474.1373,-66.2045 479.7587,-68.3023 479.7587,-72.4977 474.1373,-74.5955 474.1373,-74.5955 308.2377,-136.5047 308.2377,-136.5047 302.6163,-138.6024 291.3737,-138.6024 285.7523,-136.5047"/>
<text text-anchor="middle" x="296.995" y="-63.8" font-family="ING Me" font-size="22.00" fill="#ffffff">HappyCustomer</text>
</g>
<!-- ServeSpaghetti&#45;&gt;HappyCustomer -->
<g id="edge16" class="edge">
<title>ServeSpaghetti&#45;&gt;HappyCustomer</title>
<path fill="none" stroke="#000000" d="M422.7763,-176.7672C403.6291,-160.5753 382.2149,-142.4664 362.5598,-125.8451"/>
<polygon fill="#000000" stroke="#000000" points="364.7308,-123.0972 354.835,-119.3125 360.2108,-128.4423 364.7308,-123.0972"/>
</g>
<!-- SadCustomer -->
<g id="node16" class="node">
<title>SadCustomer</title>
<path fill="#767676" stroke="#767676" d="M654.9806,-135.9375C654.9806,-135.9375 514.4286,-75.1626 514.4286,-75.1626 508.9214,-72.7813 508.9214,-68.0187 514.4286,-65.6374 514.4286,-65.6374 654.9806,-4.8625 654.9806,-4.8625 660.4878,-2.4812 671.5022,-2.4812 677.0094,-4.8625 677.0094,-4.8625 817.5614,-65.6374 817.5614,-65.6374 823.0686,-68.0187 823.0686,-72.7813 817.5614,-75.1626 817.5614,-75.1626 677.0094,-135.9375 677.0094,-135.9375 671.5022,-138.3188 660.4878,-138.3188 654.9806,-135.9375"/>
<text text-anchor="middle" x="665.995" y="-63.8" font-family="ING Me" font-size="22.00" fill="#ffffff">SadCustomer</text>
</g>
<!-- ServeSpaghetti&#45;&gt;SadCustomer -->
<g id="edge17" class="edge">
<title>ServeSpaghetti&#45;&gt;SadCustomer</title>
<path fill="none" stroke="#000000" d="M539.5302,-176.7672C559.7114,-159.7931 582.3974,-140.7123 602.9249,-123.447"/>
<polygon fill="#000000" stroke="#000000" points="605.2768,-126.0424 610.6769,-116.927 600.771,-120.6853 605.2768,-126.0424"/>
</g>
<!-- OnionChopped -->
<g id="node19" class="node">
<title>OnionChopped</title>
<path fill="#767676" stroke="#767676" d="M431.8308,-2487.6851C431.8308,-2487.6851 275.7927,-2426.1853 275.7927,-2426.1853 270.2107,-2423.9852 270.2107,-2419.585 275.7927,-2417.3849 275.7927,-2417.3849 431.8308,-2355.8851 431.8308,-2355.8851 437.4129,-2353.6851 448.5771,-2353.6851 454.1592,-2355.8851 454.1592,-2355.8851 610.1973,-2417.3849 610.1973,-2417.3849 615.7793,-2419.585 615.7793,-2423.9852 610.1973,-2426.1853 610.1973,-2426.1853 454.1592,-2487.6851 454.1592,-2487.6851 448.5771,-2489.8852 437.4129,-2489.8852 431.8308,-2487.6851"/>
<text text-anchor="middle" x="442.995" y="-2415.1851" font-family="ING Me" font-size="22.00" fill="#ffffff">OnionChopped</text>
</g>
<!-- ChopOnion&#45;&gt;OnionChopped -->
<g id="edge18" class="edge">
<title>ChopOnion&#45;&gt;OnionChopped</title>
<path fill="none" stroke="#000000" d="M491.5302,-2528.1523C486.1033,-2516.2592 480.2046,-2503.3317 474.4495,-2490.7192"/>
<polygon fill="#000000" stroke="#000000" points="477.6286,-2489.255 470.2931,-2481.6103 471.2603,-2492.1609 477.6286,-2489.255"/>
</g>
<!-- choppedOnion -->
<g id="node20" class="node">
<title>choppedOnion</title>
<ellipse fill="#ff6200" stroke="#ff6200" cx="727.995" cy="-2211.6309" rx="102.8066" ry="102.8066"/>
<text text-anchor="middle" x="727.995" y="-2205.0309" font-family="ING Me" font-size="22.00" fill="#ffffff">choppedOnion</text>
</g>
<!-- OnionChopped&#45;&gt;choppedOnion -->
<g id="edge19" class="edge">
<title>OnionChopped&#45;&gt;choppedOnion</title>
<path fill="none" stroke="#000000" d="M517.0485,-2380.573C548.4855,-2361.9877 584.9607,-2338.9431 615.995,-2315.3851 626.1733,-2307.6588 636.4901,-2299.1629 646.5324,-2290.4612"/>
<polygon fill="#000000" stroke="#000000" points="648.9429,-2293.0024 654.1513,-2283.7762 644.3262,-2287.7407 648.9429,-2293.0024"/>
</g>
<!-- choppedOnion&#45;&gt;FryVegetables -->
<g id="edge20" class="edge">
<title>choppedOnion&#45;&gt;FryVegetables</title>
<path fill="none" stroke="#000000" d="M746.7303,-2110.4294C751.2631,-2085.9449 755.9626,-2060.56 760.0048,-2038.7257"/>
<polygon fill="#000000" stroke="#000000" points="763.4936,-2039.1068 761.8725,-2028.6368 756.6106,-2037.8325 763.4936,-2039.1068"/>
</g>
<!-- tomatoPaste -->
<g id="node21" class="node">
<title>tomatoPaste</title>
<ellipse fill="#ff6200" stroke="#ff6200" cx="1271.995" cy="-1763.4894" rx="87.2096" ry="87.2096"/>
<text text-anchor="middle" x="1271.995" y="-1756.8894" font-family="ING Me" font-size="22.00" fill="#ffffff">tomatoPaste</text>
</g>
<!-- tomatoPaste&#45;&gt;CreateRagu -->
<g id="edge21" class="edge">
<title>tomatoPaste&#45;&gt;CreateRagu</title>
<path fill="none" stroke="#000000" d="M1268.1155,-1676.1857C1264.6095,-1589.6836 1259.995,-1453.4094 1259.995,-1335.3701 1259.995,-1335.3701 1259.995,-1335.3701 1259.995,-1179.7701 1259.995,-979.7271 1252.6502,-923.8328 1182.995,-736.3085 1179.6536,-727.3129 1175.3541,-718.2012 1170.6711,-709.449"/>
<polygon fill="#000000" stroke="#000000" points="1173.599,-707.5126 1165.6762,-700.4784 1167.4831,-710.9181 1173.599,-707.5126"/>
</g>
<!-- onion -->
<g id="node22" class="node">
<title>onion</title>
<ellipse fill="#ff6200" stroke="#ff6200" cx="693.995" cy="-2748.2224" rx="47.0004" ry="47.0004"/>
<text text-anchor="middle" x="693.995" y="-2741.6224" font-family="ING Me" font-size="22.00" fill="#ffffff">onion</text>
</g>
<!-- onion&#45;&gt;ChopOnion -->
<g id="edge22" class="edge">
<title>onion&#45;&gt;ChopOnion</title>
<path fill="none" stroke="#000000" d="M659.7147,-2715.6871C635.3695,-2692.5812 602.0566,-2660.964 573.4268,-2633.7916"/>
<polygon fill="#000000" stroke="#000000" points="575.5363,-2630.9682 565.8735,-2626.6228 570.7174,-2636.0456 575.5363,-2630.9682"/>
</g>
<!-- ShoppedGroceries -->
<g id="node23" class="node">
<title>ShoppedGroceries</title>
<path fill="#d5d5d5" stroke="#767676" stroke-width="2" d="M1299.6353,-3006.6923C1299.6353,-3006.6923 1115.8707,-2944.1272 1115.8707,-2944.1272 1110.1908,-2942.1934 1110.1908,-2938.3259 1115.8707,-2936.3921 1115.8707,-2936.3921 1299.6353,-2873.8271 1299.6353,-2873.8271 1305.3152,-2871.8933 1316.6748,-2871.8933 1322.3547,-2873.8271 1322.3547,-2873.8271 1506.1193,-2936.3921 1506.1193,-2936.3921 1511.7992,-2938.3259 1511.7992,-2942.1934 1506.1193,-2944.1272 1506.1193,-2944.1272 1322.3547,-3006.6923 1322.3547,-3006.6923 1316.6748,-3008.626 1305.3152,-3008.626 1299.6353,-3006.6923"/>
<text text-anchor="middle" x="1310.995" y="-2933.6597" font-family="ING Me" font-size="22.00" fill="#000000">ShoppedGroceries</text>
</g>
<!-- ShoppedGroceries&#45;&gt;tomatoPaste -->
<g id="edge29" class="edge">
<title>ShoppedGroceries&#45;&gt;tomatoPaste</title>
<path fill="none" stroke="#000000" d="M1322.1907,-2873.5977C1333.3998,-2800.9752 1348.995,-2681.2685 1348.995,-2577.3851 1348.995,-2577.3851 1348.995,-2577.3851 1348.995,-2211.6309 1348.995,-2087.9846 1320.1712,-1947.8839 1297.794,-1857.7487"/>
<polygon fill="#000000" stroke="#000000" points="1301.1332,-1856.6748 1295.3065,-1847.826 1294.3433,-1858.377 1301.1332,-1856.6748"/>
</g>
<!-- ShoppedGroceries&#45;&gt;onion -->
<g id="edge26" class="edge">
<title>ShoppedGroceries&#45;&gt;onion</title>
<path fill="none" stroke="#000000" d="M1202.8158,-2906.5896C1070.0298,-2865.2608 850.0108,-2796.7813 748.4507,-2765.1714"/>
<polygon fill="#000000" stroke="#000000" points="749.295,-2761.7686 738.7066,-2762.1386 747.2147,-2768.4524 749.295,-2761.7686"/>
</g>
<!-- mincedMeat -->
<g id="node24" class="node">
<title>mincedMeat</title>
<ellipse fill="#ff6200" stroke="#ff6200" cx="1115.995" cy="-1530.3524" rx="89.135" ry="89.135"/>
<text text-anchor="middle" x="1115.995" y="-1523.7524" font-family="ING Me" font-size="22.00" fill="#ffffff">mincedMeat</text>
</g>
<!-- ShoppedGroceries&#45;&gt;mincedMeat -->
<g id="edge23" class="edge">
<title>ShoppedGroceries&#45;&gt;mincedMeat</title>
<path fill="none" stroke="#000000" d="M1313.1309,-2870.5544C1315.536,-2759.9691 1316.3588,-2537.7542 1291.995,-2351.3851 1262.3939,-2124.9533 1222.7942,-2074.3557 1175.995,-1850.8441 1160.4132,-1776.4257 1144.6654,-1691.8738 1133.2151,-1628.3072"/>
<polygon fill="#000000" stroke="#000000" points="1136.6286,-1627.5134 1131.415,-1618.2902 1129.7389,-1628.7516 1136.6286,-1627.5134"/>
</g>
<!-- herbs -->
<g id="node25" class="node">
<title>herbs</title>
<ellipse fill="#ff6200" stroke="#ff6200" cx="1348.995" cy="-1335.3701" rx="45.0082" ry="45.0082"/>
<text text-anchor="middle" x="1348.995" y="-1328.7701" font-family="ING Me" font-size="22.00" fill="#ffffff">herbs</text>
</g>
<!-- ShoppedGroceries&#45;&gt;herbs -->
<g id="edge24" class="edge">
<title>ShoppedGroceries&#45;&gt;herbs</title>
<path fill="none" stroke="#000000" d="M1336.8118,-2878.5442C1342.1287,-2864.0775 1347.2426,-2848.5846 1350.995,-2833.8597 1379.4196,-2722.3184 1386.995,-2692.4912 1386.995,-2577.3851 1386.995,-2577.3851 1386.995,-2577.3851 1386.995,-1763.4894 1386.995,-1628.7816 1368.0978,-1471.1621 1356.9557,-1389.9345"/>
<polygon fill="#000000" stroke="#000000" points="1360.4102,-1389.3641 1355.5707,-1379.9392 1353.4765,-1390.325 1360.4102,-1389.3641"/>
</g>
<!-- carrot -->
<g id="node26" class="node">
<title>carrot</title>
<ellipse fill="#ff6200" stroke="#ff6200" cx="1048.995" cy="-2748.2224" rx="47.6668" ry="47.6668"/>
<text text-anchor="middle" x="1048.995" y="-2741.6224" font-family="ING Me" font-size="22.00" fill="#ffffff">carrot</text>
</g>
<!-- ShoppedGroceries&#45;&gt;carrot -->
<g id="edge25" class="edge">
<title>ShoppedGroceries&#45;&gt;carrot</title>
<path fill="none" stroke="#000000" d="M1245.2195,-2892.0484C1198.7055,-2857.9552 1137.4621,-2813.0659 1095.853,-2782.5677"/>
<polygon fill="#000000" stroke="#000000" points="1097.6786,-2779.5664 1087.544,-2776.4775 1093.5404,-2785.2122 1097.6786,-2779.5664"/>
</g>
<!-- wine -->
<g id="node27" class="node">
<title>wine</title>
<ellipse fill="#ff6200" stroke="#ff6200" cx="1406.995" cy="-1179.7701" rx="41.6012" ry="41.6012"/>
<text text-anchor="middle" x="1406.995" y="-1173.1701" font-family="ING Me" font-size="22.00" fill="#ffffff">wine</text>
</g>
<!-- ShoppedGroceries&#45;&gt;wine -->
<g id="edge27" class="edge">
<title>ShoppedGroceries&#45;&gt;wine</title>
<path fill="none" stroke="#000000" d="M1353.9148,-2884.3837C1364.1781,-2868.7379 1374.1358,-2851.2392 1380.995,-2833.8597 1423.4531,-2726.2811 1424.995,-2693.0391 1424.995,-2577.3851 1424.995,-2577.3851 1424.995,-2577.3851 1424.995,-1530.3524 1424.995,-1423.9787 1416.6278,-1299.6884 1411.3028,-1231.3599"/>
<polygon fill="#000000" stroke="#000000" points="1414.784,-1230.9832 1410.5083,-1221.2895 1407.8057,-1231.5338 1414.784,-1230.9832"/>
</g>
<!-- pasta -->
<g id="node28" class="node">
<title>pasta</title>
<ellipse fill="#ff6200" stroke="#ff6200" cx="393.995" cy="-2748.2224" rx="43.0527" ry="43.0527"/>
<text text-anchor="middle" x="393.995" y="-2741.6224" font-family="ING Me" font-size="22.00" fill="#ffffff">pasta</text>
</g>
<!-- ShoppedGroceries&#45;&gt;pasta -->
<g id="edge28" class="edge">
<title>ShoppedGroceries&#45;&gt;pasta</title>
<path fill="none" stroke="#000000" d="M1124.7194,-2933.2308C909.8377,-2922.317 571.9775,-2895.6952 461.995,-2833.8597 445.519,-2824.5963 431.5731,-2809.5852 420.6815,-2794.6982"/>
<polygon fill="#000000" stroke="#000000" points="423.5395,-2792.6777 414.9482,-2786.4777 417.798,-2796.6821 423.5395,-2792.6777"/>
</g>
<!-- mincedMeat&#45;&gt;FryMeat -->
<g id="edge30" class="edge">
<title>mincedMeat&#45;&gt;FryMeat</title>
<path fill="none" stroke="#000000" d="M1047.0996,-1473.4313C1015.7439,-1447.5253 978.7578,-1416.9676 947.5636,-1391.1951"/>
<polygon fill="#000000" stroke="#000000" points="949.7031,-1388.4227 939.7646,-1384.7516 945.2446,-1393.8191 949.7031,-1388.4227"/>
</g>
<!-- herbs&#45;&gt;CreateRagu -->
<g id="edge31" class="edge">
<title>herbs&#45;&gt;CreateRagu</title>
<path fill="none" stroke="#000000" d="M1345.6193,-1290.1736C1335.4821,-1158.6664 1304.1422,-782.5786 1273.995,-736.3085 1262.5981,-718.8164 1246.2411,-704.3925 1228.655,-692.7035"/>
<polygon fill="#000000" stroke="#000000" points="1230.2603,-689.5773 1219.9394,-687.1836 1226.5148,-695.491 1230.2603,-689.5773"/>
</g>
<!-- carrot&#45;&gt;ChopCarrot -->
<g id="edge32" class="edge">
<title>carrot&#45;&gt;ChopCarrot</title>
<path fill="none" stroke="#000000" d="M1037.6292,-2701.9914C1032.6797,-2681.859 1026.8186,-2658.0186 1021.5551,-2636.609"/>
<polygon fill="#000000" stroke="#000000" points="1024.8915,-2635.5195 1019.1053,-2626.6443 1018.0939,-2637.1908 1024.8915,-2635.5195"/>
</g>
<!-- wine&#45;&gt;CreateRagu -->
<g id="edge33" class="edge">
<title>wine&#45;&gt;CreateRagu</title>
<path fill="none" stroke="#000000" d="M1412.2819,-1138.2333C1420.7525,-1053.0741 1427.8315,-856.6027 1332.995,-736.3085 1307.4153,-703.8621 1267.1735,-683.5997 1229.3951,-671.028"/>
<polygon fill="#000000" stroke="#000000" points="1230.4444,-667.6891 1219.8539,-667.9948 1228.3236,-674.3601 1230.4444,-667.6891"/>
</g>
<!-- BoilPasta -->
<g id="node29" class="node">
<title>BoilPasta</title>
<path fill="#525199" stroke="#525199" stroke-width="2" d="M197.3257,-2626.7859C197.3257,-2626.7859 64.6643,-2626.7859 64.6643,-2626.7859 58.6643,-2626.7859 52.6643,-2620.7859 52.6643,-2614.7859 52.6643,-2614.7859 52.6643,-2539.9843 52.6643,-2539.9843 52.6643,-2533.9843 58.6643,-2527.9843 64.6643,-2527.9843 64.6643,-2527.9843 197.3257,-2527.9843 197.3257,-2527.9843 203.3257,-2527.9843 209.3257,-2533.9843 209.3257,-2539.9843 209.3257,-2539.9843 209.3257,-2614.7859 209.3257,-2614.7859 209.3257,-2620.7859 203.3257,-2626.7859 197.3257,-2626.7859"/>
<text text-anchor="middle" x="130.995" y="-2570.7851" font-family="ING Me" font-size="22.00" fill="#ffffff">BoilPasta</text>
</g>
<!-- pasta&#45;&gt;BoilPasta -->
<g id="edge34" class="edge">
<title>pasta&#45;&gt;BoilPasta</title>
<path fill="none" stroke="#000000" d="M357.7021,-2724.6476C321.1457,-2700.9016 263.4317,-2663.4122 215.3858,-2632.203"/>
<polygon fill="#000000" stroke="#000000" points="217.1355,-2629.166 206.8429,-2626.6537 213.3224,-2635.0362 217.1355,-2629.166"/>
</g>
<!-- BoiledPasta -->
<g id="node30" class="node">
<title>BoiledPasta</title>
<path fill="#767676" stroke="#767676" d="M276.1398,-2276.816C276.1398,-2276.816 148.6578,-2216.7459 148.6578,-2216.7459 143.2302,-2214.1884 143.2302,-2209.0734 148.6578,-2206.5159 148.6578,-2206.5159 276.1398,-2146.4458 276.1398,-2146.4458 281.5674,-2143.8883 292.4226,-2143.8883 297.8502,-2146.4458 297.8502,-2146.4458 425.3322,-2206.5159 425.3322,-2206.5159 430.7598,-2209.0734 430.7598,-2214.1884 425.3322,-2216.7459 425.3322,-2216.7459 297.8502,-2276.816 297.8502,-2276.816 292.4226,-2279.3735 281.5674,-2279.3735 276.1398,-2276.816"/>
<text text-anchor="middle" x="286.995" y="-2205.0309" font-family="ING Me" font-size="22.00" fill="#ffffff">BoiledPasta</text>
</g>
<!-- BoilPasta&#45;&gt;BoiledPasta -->
<g id="edge35" class="edge">
<title>BoilPasta&#45;&gt;BoiledPasta</title>
<path fill="none" stroke="#000000" d="M150.4898,-2527.7535C168.7102,-2481.7931 196.9409,-2411.6568 222.995,-2351.3851 233.2787,-2327.5954 244.9708,-2301.7422 255.5226,-2278.815"/>
<polygon fill="#000000" stroke="#000000" points="258.8006,-2280.0645 259.8124,-2269.5181 252.4446,-2277.1317 258.8006,-2280.0645"/>
</g>
<!-- alDentePasta -->
<g id="node31" class="node">
<title>alDentePasta</title>
<ellipse fill="#ff6200" stroke="#ff6200" cx="407.995" cy="-1979.3604" rx="92.5326" ry="92.5326"/>
<text text-anchor="middle" x="407.995" y="-1972.7604" font-family="ING Me" font-size="22.00" fill="#ffffff">alDentePasta</text>
</g>
<!-- BoiledPasta&#45;&gt;alDentePasta -->
<g id="edge36" class="edge">
<title>BoiledPasta&#45;&gt;alDentePasta</title>
<path fill="none" stroke="#000000" d="M316.4402,-2155.1082C329.6328,-2129.7838 345.5283,-2099.271 360.3456,-2070.8278"/>
<polygon fill="#000000" stroke="#000000" points="363.5976,-2072.1607 365.1137,-2061.6749 357.3895,-2068.9266 363.5976,-2072.1607"/>
</g>
<!-- alDentePasta&#45;&gt;ServeSpaghetti -->
<g id="edge37" class="edge">
<title>alDentePasta&#45;&gt;ServeSpaghetti</title>
<path fill="none" stroke="#000000" d="M420.9819,-1887.5598C432.6616,-1796.9599 447.995,-1654.3969 447.995,-1530.3524 447.995,-1530.3524 447.995,-1530.3524 447.995,-495.5085 447.995,-422.8811 459.9479,-340.0553 469.4662,-285.6129"/>
<polygon fill="#000000" stroke="#000000" points="472.9684,-285.9088 471.2724,-275.4506 466.0764,-284.6838 472.9684,-285.9088"/>
</g>
<!-- cookingPod -->
<g id="node32" class="node">
<title>cookingPod</title>
<ellipse fill="#ff6200" stroke="#ff6200" cx="122.995" cy="-2748.2224" rx="85.7748" ry="85.7748"/>
<text text-anchor="middle" x="122.995" y="-2741.6224" font-family="ING Me" font-size="22.00" fill="#ffffff">cookingPod</text>
</g>
<!-- cookingPod&#45;&gt;BoilPasta -->
<g id="edge38" class="edge">
<title>cookingPod&#45;&gt;BoilPasta</title>
<path fill="none" stroke="#000000" d="M127.0067,-2662.5535C127.4169,-2653.7937 127.827,-2645.0374 128.2196,-2636.6531"/>
<polygon fill="#000000" stroke="#000000" points="131.717,-2636.7882 128.6887,-2626.6354 124.7247,-2636.4607 131.717,-2636.7882"/>
</g>
<!-- GatheredKitchenware -->
<g id="node33" class="node">
<title>GatheredKitchenware</title>
<path fill="#d5d5d5" stroke="#767676" stroke-width="2" d="M225.4905,-3007.1471C225.4905,-3007.1471 11.5095,-2943.6723 11.5095,-2943.6723 5.7573,-2941.966 5.7573,-2938.5533 11.5095,-2936.847 11.5095,-2936.847 225.4905,-2873.3722 225.4905,-2873.3722 231.2427,-2871.6659 242.7473,-2871.6659 248.4995,-2873.3722 248.4995,-2873.3722 462.4805,-2936.847 462.4805,-2936.847 468.2327,-2938.5533 468.2327,-2941.966 462.4805,-2943.6723 462.4805,-2943.6723 248.4995,-3007.1471 248.4995,-3007.1471 242.7473,-3008.8535 231.2427,-3008.8535 225.4905,-3007.1471"/>
<text text-anchor="middle" x="236.995" y="-2933.6597" font-family="ING Me" font-size="22.00" fill="#000000">GatheredKitchenware</text>
</g>
<!-- GatheredKitchenware&#45;&gt;knife -->
<g id="edge41" class="edge">
<title>GatheredKitchenware&#45;&gt;knife</title>
<path fill="none" stroke="#000000" d="M337.7236,-2899.7354C373.9355,-2882.4836 413.762,-2860.2088 445.995,-2833.8597 460.1251,-2822.3089 473.2319,-2807.3571 484.0915,-2793.1874"/>
<polygon fill="#000000" stroke="#000000" points="487.0485,-2795.0767 490.2165,-2784.9665 481.4352,-2790.8944 487.0485,-2795.0767"/>
</g>
<!-- GatheredKitchenware&#45;&gt;cookingPod -->
<g id="edge39" class="edge">
<title>GatheredKitchenware&#45;&gt;cookingPod</title>
<path fill="none" stroke="#000000" d="M201.3936,-2880.2878C192.0474,-2864.5437 181.8032,-2847.287 171.8926,-2830.5922"/>
<polygon fill="#000000" stroke="#000000" points="174.8612,-2828.7364 166.7469,-2821.9241 168.8419,-2832.3097 174.8612,-2828.7364"/>
</g>
<!-- fryingPan -->
<g id="node34" class="node">
<title>fryingPan</title>
<ellipse fill="#ff6200" stroke="#ff6200" cx="533.995" cy="-2211.6309" rx="72.8207" ry="72.8207"/>
<text text-anchor="middle" x="533.995" y="-2205.0309" font-family="ING Me" font-size="22.00" fill="#ffffff">fryingPan</text>
</g>
<!-- GatheredKitchenware&#45;&gt;fryingPan -->
<g id="edge40" class="edge">
<title>GatheredKitchenware&#45;&gt;fryingPan</title>
<path fill="none" stroke="#000000" d="M234.4562,-2870.5978C229.7614,-2723.1848 222.9864,-2389.9897 255.995,-2351.3851 311.5656,-2286.3935 371.0013,-2358.2445 444.995,-2315.3851 460.5894,-2306.3524 474.7633,-2293.5491 486.9873,-2280.007"/>
<polygon fill="#000000" stroke="#000000" points="489.657,-2282.2708 493.5745,-2272.4268 484.3732,-2277.6792 489.657,-2282.2708"/>
</g>
<!-- fryingPan&#45;&gt;FryVegetables -->
<g id="edge44" class="edge">
<title>fryingPan&#45;&gt;FryVegetables</title>
<path fill="none" stroke="#000000" d="M577.0526,-2152.7415C589.0575,-2137.5859 602.5186,-2121.6727 615.995,-2107.8767 641.006,-2082.2725 670.806,-2056.5905 697.563,-2034.9891"/>
<polygon fill="#000000" stroke="#000000" points="699.7763,-2037.7007 705.3902,-2028.7154 695.3983,-2032.2386 699.7763,-2037.7007"/>
</g>
<!-- fryingPan&#45;&gt;FryMeat -->
<g id="edge42" class="edge">
<title>fryingPan&#45;&gt;FryMeat</title>
<path fill="none" stroke="#000000" d="M545.3277,-2139.8401C566.8586,-2004.2524 612.6339,-1720.1073 624.995,-1676.1347 658.0908,-1558.4013 646.2421,-1512.4149 726.995,-1420.5701 745.9474,-1399.0145 771.7287,-1381.7705 796.7247,-1368.5895"/>
<polygon fill="#000000" stroke="#000000" points="798.5669,-1371.5788 805.8842,-1363.9167 795.3858,-1365.3434 798.5669,-1371.5788"/>
</g>
<!-- fryingPan&#45;&gt;CreateRagu -->
<g id="edge43" class="edge">
<title>fryingPan&#45;&gt;CreateRagu</title>
<path fill="none" stroke="#000000" d="M535.8342,-2138.672C537.9081,-2049.9861 540.995,-1895.7695 540.995,-1763.4894 540.995,-1763.4894 540.995,-1763.4894 540.995,-1179.7701 540.995,-945.2423 638.2109,-875.4626 826.995,-736.3085 887.2763,-691.8747 969.7573,-670.6047 1033.7475,-660.428"/>
<polygon fill="#000000" stroke="#000000" points="1034.494,-663.8548 1043.8526,-658.8882 1033.4394,-656.9347 1034.494,-663.8548"/>
</g>
</g>
</svg>
