<svg width="1635pt" height="3039pt"
 viewBox="0.00 0.00 1635.39 3039.46" xmlns="http://www.w3.org/2000/svg" xmlns:xlink="http://www.w3.org/1999/xlink">
<g id="graph0" class="graph" transform="scale(1 1) rotate(0) translate(14.4 3025.0597)">
<title>%0</title>
<polygon fill="#ffffff" stroke="transparent" points="-14.4,14.4 -14.4,-3025.0597 1620.9882,-3025.0597 1620.9882,14.4 -14.4,14.4"/>
<!-- GatheredKitchenware -->
<g id="node1" class="node">
<title>GatheredKitchenware</title>
<path fill="#3b823a" stroke="#3b823a" d="M314.5917,-3007.1471C314.5917,-3007.1471 100.6107,-2943.6723 100.6107,-2943.6723 94.8585,-2941.966 94.8585,-2938.5533 100.6107,-2936.847 100.6107,-2936.847 314.5917,-2873.3722 314.5917,-2873.3722 320.3439,-2871.6659 331.8485,-2871.6659 337.6007,-2873.3722 337.6007,-2873.3722 551.5817,-2936.847 551.5817,-2936.847 557.3339,-2938.5533 557.3339,-2941.966 551.5817,-2943.6723 551.5817,-2943.6723 337.6007,-3007.1471 337.6007,-3007.1471 331.8485,-3008.8535 320.3439,-3008.8535 314.5917,-3007.1471"/>
<text text-anchor="middle" x="326.0962" y="-2933.6597" font-family="ING Me" font-size="22.00" fill="#ffffff">GatheredKitchenware</text>
</g>
<!-- cookingPod -->
<g id="node2" class="node">
<title>cookingPod</title>
<ellipse fill="#3b823a" stroke="#3b823a" cx="212.0962" cy="-2748.2224" rx="85.7748" ry="85.7748"/>
<text text-anchor="middle" x="212.0962" y="-2741.6224" font-family="ING Me" font-size="22.00" fill="#ffffff">cookingPod</text>
</g>
<!-- GatheredKitchenware&#45;&gt;cookingPod -->
<g id="edge1" class="edge">
<title>GatheredKitchenware&#45;&gt;cookingPod</title>
<path fill="none" stroke="#000000" d="M290.4948,-2880.2878C281.1486,-2864.5437 270.9044,-2847.287 260.9938,-2830.5922"/>
<polygon fill="#000000" stroke="#000000" points="263.9624,-2828.7364 255.8481,-2821.9241 257.9431,-2832.3097 263.9624,-2828.7364"/>
</g>
<!-- fryingPan -->
<g id="node9" class="node">
<title>fryingPan</title>
<ellipse fill="#3b823a" stroke="#3b823a" cx="591.0962" cy="-2211.6309" rx="72.8207" ry="72.8207"/>
<text text-anchor="middle" x="591.0962" y="-2205.0309" font-family="ING Me" font-size="22.00" fill="#ffffff">fryingPan</text>
</g>
<!-- GatheredKitchenware&#45;&gt;fryingPan -->
<g id="edge2" class="edge">
<title>GatheredKitchenware&#45;&gt;fryingPan</title>
<path fill="none" stroke="#000000" d="M320.1187,-2871.4789C309.5879,-2735.2704 293.4147,-2436.9795 345.0962,-2351.3851 381.4568,-2291.1651 454.1242,-2254.585 511.0964,-2234.0417"/>
<polygon fill="#000000" stroke="#000000" points="512.5364,-2237.2458 520.8165,-2230.6359 510.2216,-2230.6396 512.5364,-2237.2458"/>
</g>
<!-- knife -->
<g id="node19" class="node">
<title>knife</title>
<ellipse fill="#3b823a" stroke="#3b823a" cx="675.0962" cy="-2748.2224" rx="43.0558" ry="43.0558"/>
<text text-anchor="middle" x="675.0962" y="-2741.6224" font-family="ING Me" font-size="22.00" fill="#ffffff">knife</text>
</g>
<!-- GatheredKitchenware&#45;&gt;knife -->
<g id="edge3" class="edge">
<title>GatheredKitchenware&#45;&gt;knife</title>
<path fill="none" stroke="#000000" d="M453.9938,-2907.8939C504.7449,-2891.1059 561.7064,-2867.0118 607.0962,-2833.8597 621.9623,-2823.0017 635.3228,-2808.0823 646.1853,-2793.7363"/>
<polygon fill="#000000" stroke="#000000" points="649.2098,-2795.5296 652.2848,-2785.3908 643.5583,-2791.399 649.2098,-2795.5296"/>
</g>
<!-- BoilPasta -->
<g id="node3" class="node">
<title>BoilPasta</title>
<path fill="#3b823a" stroke="#3b823a" stroke-width="2" d="M278.4269,-2626.7859C278.4269,-2626.7859 145.7655,-2626.7859 145.7655,-2626.7859 139.7655,-2626.7859 133.7655,-2620.7859 133.7655,-2614.7859 133.7655,-2614.7859 133.7655,-2539.9843 133.7655,-2539.9843 133.7655,-2533.9843 139.7655,-2527.9843 145.7655,-2527.9843 145.7655,-2527.9843 278.4269,-2527.9843 278.4269,-2527.9843 284.4269,-2527.9843 290.4269,-2533.9843 290.4269,-2539.9843 290.4269,-2539.9843 290.4269,-2614.7859 290.4269,-2614.7859 290.4269,-2620.7859 284.4269,-2626.7859 278.4269,-2626.7859"/>
<text text-anchor="middle" x="212.0962" y="-2570.7851" font-family="ING Me" font-size="22.00" fill="#ffffff">BoilPasta</text>
</g>
<!-- cookingPod&#45;&gt;BoilPasta -->
<g id="edge4" class="edge">
<title>cookingPod&#45;&gt;BoilPasta</title>
<path fill="none" stroke="#000000" d="M212.0962,-2662.5535C212.0962,-2653.7937 212.0962,-2645.0374 212.0962,-2636.6531"/>
<polygon fill="#000000" stroke="#000000" points="215.5963,-2636.6353 212.0962,-2626.6354 208.5963,-2636.6354 215.5963,-2636.6353"/>
</g>
<!-- BoiledPasta -->
<g id="node4" class="node">
<title>BoiledPasta</title>
<path fill="#3b823a" stroke="#3b823a" d="M138.241,-2486.9702C138.241,-2486.9702 10.759,-2426.9001 10.759,-2426.9001 5.3314,-2424.3426 5.3314,-2419.2276 10.759,-2416.6701 10.759,-2416.6701 138.241,-2356.6 138.241,-2356.6 143.6686,-2354.0425 154.5238,-2354.0425 159.9514,-2356.6 159.9514,-2356.6 287.4334,-2416.6701 287.4334,-2416.6701 292.861,-2419.2276 292.861,-2424.3426 287.4334,-2426.9001 287.4334,-2426.9001 159.9514,-2486.9702 159.9514,-2486.9702 154.5238,-2489.5277 143.6686,-2489.5277 138.241,-2486.9702"/>
<text text-anchor="middle" x="149.0962" y="-2415.1851" font-family="ING Me" font-size="22.00" fill="#ffffff">BoiledPasta</text>
</g>
<!-- BoilPasta&#45;&gt;BoiledPasta -->
<g id="edge5" class="edge">
<title>BoilPasta&#45;&gt;BoiledPasta</title>
<path fill="none" stroke="#000000" d="M192.1626,-2528.1523C187.3366,-2516.2327 182.0899,-2503.2743 176.9725,-2490.6352"/>
<polygon fill="#000000" stroke="#000000" points="180.0907,-2489.0102 173.0935,-2481.0547 173.6023,-2491.6373 180.0907,-2489.0102"/>
</g>
<!-- alDentePasta -->
<g id="node5" class="node">
<title>alDentePasta</title>
<ellipse fill="#3b823a" stroke="#3b823a" cx="468.0962" cy="-1979.3604" rx="92.5326" ry="92.5326"/>
<text text-anchor="middle" x="468.0962" y="-1972.7604" font-family="ING Me" font-size="22.00" fill="#ffffff">alDentePasta</text>
</g>
<!-- BoiledPasta&#45;&gt;alDentePasta -->
<g id="edge6" class="edge">
<title>BoiledPasta&#45;&gt;alDentePasta</title>
<path fill="none" stroke="#000000" d="M186.9424,-2369.2958C241.5168,-2293.6059 342.8737,-2153.0329 407.8195,-2062.9589"/>
<polygon fill="#000000" stroke="#000000" points="410.7835,-2064.8325 413.793,-2054.6741 405.1055,-2060.7385 410.7835,-2064.8325"/>
</g>
<!-- ServeSpaghetti -->
<g id="node6" class="node">
<title>ServeSpaghetti</title>
<path fill="#3b823a" stroke="#3b823a" stroke-width="2" d="M621.7843,-275.4008C621.7843,-275.4008 440.4081,-275.4008 440.4081,-275.4008 434.4081,-275.4008 428.4081,-269.4008 428.4081,-263.4008 428.4081,-263.4008 428.4081,-188.5992 428.4081,-188.5992 428.4081,-182.5992 434.4081,-176.5992 440.4081,-176.5992 440.4081,-176.5992 621.7843,-176.5992 621.7843,-176.5992 627.7843,-176.5992 633.7843,-182.5992 633.7843,-188.5992 633.7843,-188.5992 633.7843,-263.4008 633.7843,-263.4008 633.7843,-269.4008 627.7843,-275.4008 621.7843,-275.4008"/>
<text text-anchor="middle" x="531.0962" y="-219.4" font-family="ING Me" font-size="22.00" fill="#ffffff">ServeSpaghetti</text>
</g>
<!-- alDentePasta&#45;&gt;ServeSpaghetti -->
<g id="edge7" class="edge">
<title>alDentePasta&#45;&gt;ServeSpaghetti</title>
<path fill="none" stroke="#000000" d="M477.8778,-1887.0373C486.6324,-1796.3472 498.0962,-1653.9877 498.0962,-1530.3524 498.0962,-1530.3524 498.0962,-1530.3524 498.0962,-495.5085 498.0962,-422.8811 510.0491,-340.0553 519.5674,-285.6129"/>
<polygon fill="#000000" stroke="#000000" points="523.0696,-285.9088 521.3736,-275.4506 516.1776,-284.6838 523.0696,-285.9088"/>
</g>
<!-- HappyCustomer -->
<g id="node7" class="node">
<title>HappyCustomer</title>
<path fill="#3b823a" stroke="#3b823a" d="M335.8535,-136.5047C335.8535,-136.5047 169.9539,-74.5955 169.9539,-74.5955 164.3325,-72.4977 164.3325,-68.3023 169.9539,-66.2045 169.9539,-66.2045 335.8535,-4.2953 335.8535,-4.2953 341.4749,-2.1976 352.7175,-2.1976 358.3389,-4.2953 358.3389,-4.2953 524.2385,-66.2045 524.2385,-66.2045 529.8599,-68.3023 529.8599,-72.4977 524.2385,-74.5955 524.2385,-74.5955 358.3389,-136.5047 358.3389,-136.5047 352.7175,-138.6024 341.4749,-138.6024 335.8535,-136.5047"/>
<text text-anchor="middle" x="347.0962" y="-63.8" font-family="ING Me" font-size="22.00" fill="#ffffff">HappyCustomer</text>
</g>
<!-- ServeSpaghetti&#45;&gt;HappyCustomer -->
<g id="edge8" class="edge">
<title>ServeSpaghetti&#45;&gt;HappyCustomer</title>
<path fill="none" stroke="#000000" d="M472.8775,-176.7672C453.7303,-160.5753 432.3161,-142.4664 412.661,-125.8451"/>
<polygon fill="#000000" stroke="#000000" points="414.832,-123.0972 404.9362,-119.3125 410.312,-128.4423 414.832,-123.0972"/>
</g>
<!-- SadCustomer -->
<g id="node8" class="node">
<title>SadCustomer</title>
<path fill="#767676" stroke="#767676" d="M705.0818,-135.9375C705.0818,-135.9375 564.5298,-75.1626 564.5298,-75.1626 559.0226,-72.7813 559.0226,-68.0187 564.5298,-65.6374 564.5298,-65.6374 705.0818,-4.8625 705.0818,-4.8625 710.589,-2.4812 721.6034,-2.4812 727.1106,-4.8625 727.1106,-4.8625 867.6626,-65.6374 867.6626,-65.6374 873.1698,-68.0187 873.1698,-72.7813 867.6626,-75.1626 867.6626,-75.1626 727.1106,-135.9375 727.1106,-135.9375 721.6034,-138.3188 710.589,-138.3188 705.0818,-135.9375"/>
<text text-anchor="middle" x="716.0962" y="-63.8" font-family="ING Me" font-size="22.00" fill="#ffffff">SadCustomer</text>
</g>
<!-- ServeSpaghetti&#45;&gt;SadCustomer -->
<g id="edge9" class="edge">
<title>ServeSpaghetti&#45;&gt;SadCustomer</title>
<path fill="none" stroke="#000000" d="M589.6314,-176.7672C609.8126,-159.7931 632.4986,-140.7123 653.0261,-123.447"/>
<polygon fill="#000000" stroke="#000000" points="655.378,-126.0424 660.7781,-116.927 650.8722,-120.6853 655.378,-126.0424"/>
</g>
<!-- FryMeat -->
<g id="node10" class="node">
<title>FryMeat</title>
<path fill="#3b823a" stroke="#3b823a" stroke-width="2" d="M1084.8512,-1384.771C1084.8512,-1384.771 961.3412,-1384.771 961.3412,-1384.771 955.3412,-1384.771 949.3412,-1378.771 949.3412,-1372.771 949.3412,-1372.771 949.3412,-1297.9693 949.3412,-1297.9693 949.3412,-1291.9693 955.3412,-1285.9693 961.3412,-1285.9693 961.3412,-1285.9693 1084.8512,-1285.9693 1084.8512,-1285.9693 1090.8512,-1285.9693 1096.8512,-1291.9693 1096.8512,-1297.9693 1096.8512,-1297.9693 1096.8512,-1372.771 1096.8512,-1372.771 1096.8512,-1378.771 1090.8512,-1384.771 1084.8512,-1384.771"/>
<text text-anchor="middle" x="1023.0962" y="-1328.7701" font-family="ING Me" font-size="22.00" fill="#ffffff">FryMeat</text>
</g>
<!-- fryingPan&#45;&gt;FryMeat -->
<g id="edge10" class="edge">
<title>fryingPan&#45;&gt;FryMeat</title>
<path fill="none" stroke="#000000" d="M635.4503,-2154.0044C652.3901,-2129.7272 670.6123,-2100.4996 683.0962,-2071.8767 804.0502,-1794.556 685.4091,-1651.315 881.0962,-1420.5701 897.2762,-1401.4915 918.8619,-1385.5394 940.3094,-1372.7925"/>
<polygon fill="#000000" stroke="#000000" points="942.2286,-1375.7264 949.152,-1367.7066 938.7385,-1369.6584 942.2286,-1375.7264"/>
</g>
<!-- CreateRagu -->
<g id="node13" class="node">
<title>CreateRagu</title>
<path fill="#3b823a" stroke="#3b823a" stroke-width="2" d="M1322.9407,-700.5093C1322.9407,-700.5093 1171.2517,-700.5093 1171.2517,-700.5093 1165.2517,-700.5093 1159.2517,-694.5093 1159.2517,-688.5093 1159.2517,-688.5093 1159.2517,-613.7076 1159.2517,-613.7076 1159.2517,-607.7076 1165.2517,-601.7076 1171.2517,-601.7076 1171.2517,-601.7076 1322.9407,-601.7076 1322.9407,-601.7076 1328.9407,-601.7076 1334.9407,-607.7076 1334.9407,-613.7076 1334.9407,-613.7076 1334.9407,-688.5093 1334.9407,-688.5093 1334.9407,-694.5093 1328.9407,-700.5093 1322.9407,-700.5093"/>
<text text-anchor="middle" x="1247.0962" y="-644.5085" font-family="ING Me" font-size="22.00" fill="#ffffff">CreateRagu</text>
</g>
<!-- fryingPan&#45;&gt;CreateRagu -->
<g id="edge11" class="edge">
<title>fryingPan&#45;&gt;CreateRagu</title>
<path fill="none" stroke="#000000" d="M610.9807,-2141.6546C634.0902,-2054.0228 669.0962,-1898.9264 669.0962,-1763.4894 669.0962,-1763.4894 669.0962,-1763.4894 669.0962,-1179.7701 669.0962,-947.1502 761.0389,-875.932 947.0962,-736.3085 1005.7755,-692.2736 1086.3846,-670.9846 1149.269,-660.6993"/>
<polygon fill="#000000" stroke="#000000" points="1149.8664,-664.1485 1159.2033,-659.1413 1148.7817,-657.233 1149.8664,-664.1485"/>
</g>
<!-- FryVegetables -->
<g id="node16" class="node">
<title>FryVegetables</title>
<path fill="#3b823a" stroke="#3b823a" stroke-width="2" d="M1020.3784,-2028.7612C1020.3784,-2028.7612 843.814,-2028.7612 843.814,-2028.7612 837.814,-2028.7612 831.814,-2022.7612 831.814,-2016.7612 831.814,-2016.7612 831.814,-1941.9596 831.814,-1941.9596 831.814,-1935.9596 837.814,-1929.9596 843.814,-1929.9596 843.814,-1929.9596 1020.3784,-1929.9596 1020.3784,-1929.9596 1026.3784,-1929.9596 1032.3784,-1935.9596 1032.3784,-1941.9596 1032.3784,-1941.9596 1032.3784,-2016.7612 1032.3784,-2016.7612 1032.3784,-2022.7612 1026.3784,-2028.7612 1020.3784,-2028.7612"/>
<text text-anchor="middle" x="932.0962" y="-1972.7604" font-family="ING Me" font-size="22.00" fill="#ffffff">FryVegetables</text>
</g>
<!-- fryingPan&#45;&gt;FryVegetables -->
<g id="edge12" class="edge">
<title>fryingPan&#45;&gt;FryVegetables</title>
<path fill="none" stroke="#000000" d="M630.3493,-2150.3944C642.5567,-2134.9031 657.0695,-2119.4097 673.0962,-2107.8767 711.4375,-2080.2858 730.2839,-2091.837 773.0962,-2071.8767 797.0945,-2060.688 822.2254,-2047.0429 845.2382,-2033.7059"/>
<polygon fill="#000000" stroke="#000000" points="847.0804,-2036.6832 853.9476,-2028.6152 843.548,-2030.6398 847.0804,-2036.6832"/>
</g>
<!-- MeatFried -->
<g id="node11" class="node">
<title>MeatFried</title>
<path fill="#3b823a" stroke="#3b823a" d="M1080.44,-1244.5526C1080.44,-1244.5526 965.9835,-1185.2878 965.9835,-1185.2878 960.6554,-1182.529 960.6554,-1177.0113 965.9835,-1174.2524 965.9835,-1174.2524 1080.44,-1114.9877 1080.44,-1114.9877 1085.7681,-1112.2289 1096.4243,-1112.2289 1101.7524,-1114.9877 1101.7524,-1114.9877 1216.2089,-1174.2524 1216.2089,-1174.2524 1221.537,-1177.0113 1221.537,-1182.529 1216.2089,-1185.2878 1216.2089,-1185.2878 1101.7524,-1244.5526 1101.7524,-1244.5526 1096.4243,-1247.3114 1085.7681,-1247.3114 1080.44,-1244.5526"/>
<text text-anchor="middle" x="1091.0962" y="-1173.1701" font-family="ING Me" font-size="22.00" fill="#ffffff">MeatFried</text>
</g>
<!-- FryMeat&#45;&gt;MeatFried -->
<g id="edge13" class="edge">
<title>FryMeat&#45;&gt;MeatFried</title>
<path fill="none" stroke="#000000" d="M1044.6118,-1286.1373C1050.1443,-1273.4777 1056.189,-1259.6461 1062.0346,-1246.2699"/>
<polygon fill="#000000" stroke="#000000" points="1065.2437,-1247.6669 1066.0411,-1237.1021 1058.8294,-1244.8637 1065.2437,-1247.6669"/>
</g>
<!-- friedMeatAndVegetables -->
<g id="node12" class="node">
<title>friedMeatAndVegetables</title>
<ellipse fill="#3b823a" stroke="#3b823a" cx="1125.0962" cy="-904.8393" rx="168.5617" ry="168.5617"/>
<text text-anchor="middle" x="1125.0962" y="-898.2393" font-family="ING Me" font-size="22.00" fill="#ffffff">friedMeatAndVegetables</text>
</g>
<!-- MeatFried&#45;&gt;friedMeatAndVegetables -->
<g id="edge14" class="edge">
<title>MeatFried&#45;&gt;friedMeatAndVegetables</title>
<path fill="none" stroke="#000000" d="M1099.2833,-1113.5675C1100.5019,-1103.7138 1101.804,-1093.1849 1103.1515,-1082.2889"/>
<polygon fill="#000000" stroke="#000000" points="1106.6467,-1082.542 1104.4006,-1072.188 1099.6997,-1081.6828 1106.6467,-1082.542"/>
</g>
<!-- friedMeatAndVegetables&#45;&gt;CreateRagu -->
<g id="edge15" class="edge">
<title>friedMeatAndVegetables&#45;&gt;CreateRagu</title>
<path fill="none" stroke="#000000" d="M1198.1771,-752.8485C1205.4459,-737.7312 1212.4762,-723.1097 1218.8327,-709.8898"/>
<polygon fill="#000000" stroke="#000000" points="1222.1568,-711.0533 1223.3359,-700.5242 1215.8482,-708.0199 1222.1568,-711.0533"/>
</g>
<!-- RaguCreated -->
<g id="node14" class="node">
<title>RaguCreated</title>
<path fill="#3b823a" stroke="#3b823a" d="M726.1246,-560.9481C726.1246,-560.9481 589.3788,-500.3689 589.3788,-500.3689 583.893,-497.9387 583.893,-493.0782 589.3788,-490.648 589.3788,-490.648 726.1246,-430.0688 726.1246,-430.0688 731.6104,-427.6386 742.582,-427.6386 748.0678,-430.0688 748.0678,-430.0688 884.8136,-490.648 884.8136,-490.648 890.2994,-493.0782 890.2994,-497.9387 884.8136,-500.3689 884.8136,-500.3689 748.0678,-560.9481 748.0678,-560.9481 742.582,-563.3784 731.6104,-563.3784 726.1246,-560.9481"/>
<text text-anchor="middle" x="737.0962" y="-488.9085" font-family="ING Me" font-size="22.00" fill="#ffffff">RaguCreated</text>
</g>
<!-- CreateRagu&#45;&gt;RaguCreated -->
<g id="edge16" class="edge">
<title>CreateRagu&#45;&gt;RaguCreated</title>
<path fill="none" stroke="#000000" d="M1159.1338,-624.2713C1070.7922,-597.3184 934.6925,-555.7947 841.0633,-527.2286"/>
<polygon fill="#000000" stroke="#000000" points="841.8726,-523.8163 831.2864,-524.2457 839.8298,-530.5116 841.8726,-523.8163"/>
</g>
<!-- ragu -->
<g id="node15" class="node">
<title>ragu</title>
<ellipse fill="#3b823a" stroke="#3b823a" cx="625.0962" cy="-350.1542" rx="38.9085" ry="38.9085"/>
<text text-anchor="middle" x="625.0962" y="-343.5542" font-family="ING Me" font-size="22.00" fill="#ffffff">ragu</text>
</g>
<!-- RaguCreated&#45;&gt;ragu -->
<g id="edge17" class="edge">
<title>RaguCreated&#45;&gt;ragu</title>
<path fill="none" stroke="#000000" d="M696.6616,-443.0322C683.1088,-425.4434 668.2348,-406.1397 655.5746,-389.7092"/>
<polygon fill="#000000" stroke="#000000" points="658.0507,-387.1883 649.1746,-381.4033 652.5058,-391.4608 658.0507,-387.1883"/>
</g>
<!-- ragu&#45;&gt;ServeSpaghetti -->
<g id="edge18" class="edge">
<title>ragu&#45;&gt;ServeSpaghetti</title>
<path fill="none" stroke="#000000" d="M601.376,-318.8249C593.1668,-307.9822 583.69,-295.4653 574.4063,-283.2035"/>
<polygon fill="#000000" stroke="#000000" points="577.1755,-281.0627 568.3487,-275.2028 571.5946,-285.2882 577.1755,-281.0627"/>
</g>
<!-- VegetablesFried -->
<g id="node17" class="node">
<title>VegetablesFried</title>
<path fill="#3b823a" stroke="#3b823a" d="M965.854,-1829.5929C965.854,-1829.5929 800.0151,-1767.6861 800.0151,-1767.6861 794.394,-1765.5877 794.394,-1761.3911 800.0151,-1759.2927 800.0151,-1759.2927 965.854,-1697.3859 965.854,-1697.3859 971.4751,-1695.2876 982.7173,-1695.2876 988.3384,-1697.3859 988.3384,-1697.3859 1154.1773,-1759.2927 1154.1773,-1759.2927 1159.7984,-1761.3911 1159.7984,-1765.5877 1154.1773,-1767.6861 1154.1773,-1767.6861 988.3384,-1829.5929 988.3384,-1829.5929 982.7173,-1831.6912 971.4751,-1831.6912 965.854,-1829.5929"/>
<text text-anchor="middle" x="977.0962" y="-1756.8894" font-family="ING Me" font-size="22.00" fill="#ffffff">VegetablesFried</text>
</g>
<!-- FryVegetables&#45;&gt;VegetablesFried -->
<g id="edge19" class="edge">
<title>FryVegetables&#45;&gt;VegetablesFried</title>
<path fill="none" stroke="#000000" d="M942.3637,-1930.1058C947.9803,-1903.1621 955.0581,-1869.2092 961.3567,-1838.9941"/>
<polygon fill="#000000" stroke="#000000" points="964.8451,-1839.4099 963.4596,-1828.9061 957.9924,-1837.9814 964.8451,-1839.4099"/>
</g>
<!-- friedVegetables -->
<g id="node18" class="node">
<title>friedVegetables</title>
<ellipse fill="#3b823a" stroke="#3b823a" cx="1000.0962" cy="-1530.3524" rx="109.565" ry="109.565"/>
<text text-anchor="middle" x="1000.0962" y="-1523.7524" font-family="ING Me" font-size="22.00" fill="#ffffff">friedVegetables</text>
</g>
<!-- VegetablesFried&#45;&gt;friedVegetables -->
<g id="edge20" class="edge">
<title>VegetablesFried&#45;&gt;friedVegetables</title>
<path fill="none" stroke="#000000" d="M983.8106,-1695.4298C985.2246,-1681.0972 986.756,-1665.5737 988.2947,-1649.9772"/>
<polygon fill="#000000" stroke="#000000" points="991.8069,-1650.0246 989.3057,-1639.7293 984.8407,-1649.3373 991.8069,-1650.0246"/>
</g>
<!-- friedVegetables&#45;&gt;FryMeat -->
<g id="edge21" class="edge">
<title>friedVegetables&#45;&gt;FryMeat</title>
<path fill="none" stroke="#000000" d="M1012.9746,-1421.176C1014.0401,-1412.1435 1015.0895,-1403.2468 1016.0857,-1394.802"/>
<polygon fill="#000000" stroke="#000000" points="1019.5761,-1395.0878 1017.2718,-1384.7466 1012.6243,-1394.2677 1019.5761,-1395.0878"/>
</g>
<!-- ChopOnion -->
<g id="node20" class="node">
<title>ChopOnion</title>
<path fill="#3b823a" stroke="#3b823a" stroke-width="2" d="M750.2639,-2626.7859C750.2639,-2626.7859 599.9285,-2626.7859 599.9285,-2626.7859 593.9285,-2626.7859 587.9285,-2620.7859 587.9285,-2614.7859 587.9285,-2614.7859 587.9285,-2539.9843 587.9285,-2539.9843 587.9285,-2533.9843 593.9285,-2527.9843 599.9285,-2527.9843 599.9285,-2527.9843 750.2639,-2527.9843 750.2639,-2527.9843 756.2639,-2527.9843 762.2639,-2533.9843 762.2639,-2539.9843 762.2639,-2539.9843 762.2639,-2614.7859 762.2639,-2614.7859 762.2639,-2620.7859 756.2639,-2626.7859 750.2639,-2626.7859"/>
<text text-anchor="middle" x="675.0962" y="-2570.7851" font-family="ING Me" font-size="22.00" fill="#ffffff">ChopOnion</text>
</g>
<!-- knife&#45;&gt;ChopOnion -->
<g id="edge22" class="edge">
<title>knife&#45;&gt;ChopOnion</title>
<path fill="none" stroke="#000000" d="M675.0962,-2704.6709C675.0962,-2684.0105 675.0962,-2659.0088 675.0962,-2636.6522"/>
<polygon fill="#000000" stroke="#000000" points="678.5963,-2636.5915 675.0962,-2626.5915 671.5963,-2636.5915 678.5963,-2636.5915"/>
</g>
<!-- ChopCarrot -->
<g id="node23" class="node">
<title>ChopCarrot</title>
<path fill="#3b823a" stroke="#3b823a" stroke-width="2" d="M1149.967,-2626.7859C1149.967,-2626.7859 998.2254,-2626.7859 998.2254,-2626.7859 992.2254,-2626.7859 986.2254,-2620.7859 986.2254,-2614.7859 986.2254,-2614.7859 986.2254,-2539.9843 986.2254,-2539.9843 986.2254,-2533.9843 992.2254,-2527.9843 998.2254,-2527.9843 998.2254,-2527.9843 1149.967,-2527.9843 1149.967,-2527.9843 1155.967,-2527.9843 1161.967,-2533.9843 1161.967,-2539.9843 1161.967,-2539.9843 1161.967,-2614.7859 1161.967,-2614.7859 1161.967,-2620.7859 1155.967,-2626.7859 1149.967,-2626.7859"/>
<text text-anchor="middle" x="1074.0962" y="-2570.7851" font-family="ING Me" font-size="22.00" fill="#ffffff">ChopCarrot</text>
</g>
<!-- knife&#45;&gt;ChopCarrot -->
<g id="edge23" class="edge">
<title>knife&#45;&gt;ChopCarrot</title>
<path fill="none" stroke="#000000" d="M708.8876,-2720.6716C732.8852,-2702.1917 766.5064,-2678.4253 799.0962,-2662.5851 855.3809,-2635.2282 922.3915,-2614.2506 976.1723,-2599.9563"/>
<polygon fill="#000000" stroke="#000000" points="977.2696,-2603.287 986.0549,-2597.365 975.4941,-2596.5159 977.2696,-2603.287"/>
</g>
<!-- OnionChopped -->
<g id="node21" class="node">
<title>OnionChopped</title>
<path fill="#3b823a" stroke="#3b823a" d="M520.932,-2487.6851C520.932,-2487.6851 364.8939,-2426.1853 364.8939,-2426.1853 359.3119,-2423.9852 359.3119,-2419.585 364.8939,-2417.3849 364.8939,-2417.3849 520.932,-2355.8851 520.932,-2355.8851 526.5141,-2353.6851 537.6783,-2353.6851 543.2604,-2355.8851 543.2604,-2355.8851 699.2985,-2417.3849 699.2985,-2417.3849 704.8805,-2419.585 704.8805,-2423.9852 699.2985,-2426.1853 699.2985,-2426.1853 543.2604,-2487.6851 543.2604,-2487.6851 537.6783,-2489.8852 526.5141,-2489.8852 520.932,-2487.6851"/>
<text text-anchor="middle" x="532.0962" y="-2415.1851" font-family="ING Me" font-size="22.00" fill="#ffffff">OnionChopped</text>
</g>
<!-- ChopOnion&#45;&gt;OnionChopped -->
<g id="edge24" class="edge">
<title>ChopOnion&#45;&gt;OnionChopped</title>
<path fill="none" stroke="#000000" d="M629.8501,-2528.1523C616.138,-2513.232 600.9299,-2496.6838 586.674,-2481.1718"/>
<polygon fill="#000000" stroke="#000000" points="589.1065,-2478.6463 579.7628,-2473.6517 583.9525,-2483.383 589.1065,-2478.6463"/>
</g>
<!-- choppedOnion -->
<g id="node22" class="node">
<title>choppedOnion</title>
<ellipse fill="#3b823a" stroke="#3b823a" cx="785.0962" cy="-2211.6309" rx="102.8066" ry="102.8066"/>
<text text-anchor="middle" x="785.0962" y="-2205.0309" font-family="ING Me" font-size="22.00" fill="#ffffff">choppedOnion</text>
</g>
<!-- OnionChopped&#45;&gt;choppedOnion -->
<g id="edge25" class="edge">
<title>OnionChopped&#45;&gt;choppedOnion</title>
<path fill="none" stroke="#000000" d="M595.268,-2376.2312C619.9768,-2357.8693 648.2848,-2336.149 673.0962,-2315.3851 682.896,-2307.184 692.9768,-2298.3921 702.8854,-2289.5227"/>
<polygon fill="#000000" stroke="#000000" points="705.3343,-2292.0274 710.4214,-2282.7337 700.649,-2286.8266 705.3343,-2292.0274"/>
</g>
<!-- choppedOnion&#45;&gt;FryVegetables -->
<g id="edge26" class="edge">
<title>choppedOnion&#45;&gt;FryVegetables</title>
<path fill="none" stroke="#000000" d="M840.2518,-2124.4811C858.6236,-2095.4524 878.6289,-2063.8426 895.2648,-2037.5566"/>
<polygon fill="#000000" stroke="#000000" points="898.3798,-2039.1795 900.7702,-2028.8578 892.4648,-2035.436 898.3798,-2039.1795"/>
</g>
<!-- CarrotChopped -->
<g id="node24" class="node">
<title>CarrotChopped</title>
<path fill="#3b823a" stroke="#3b823a" d="M896.9203,-2487.7149C896.9203,-2487.7149 739.4988,-2426.1554 739.4988,-2426.1554 733.9108,-2423.9703 733.9108,-2419.6 739.4988,-2417.4148 739.4988,-2417.4148 896.9203,-2355.8553 896.9203,-2355.8553 902.5083,-2353.6701 913.6841,-2353.6701 919.2721,-2355.8553 919.2721,-2355.8553 1076.6936,-2417.4148 1076.6936,-2417.4148 1082.2816,-2419.6 1082.2816,-2423.9703 1076.6936,-2426.1554 1076.6936,-2426.1554 919.2721,-2487.7149 919.2721,-2487.7149 913.6841,-2489.9001 902.5083,-2489.9001 896.9203,-2487.7149"/>
<text text-anchor="middle" x="908.0962" y="-2415.1851" font-family="ING Me" font-size="22.00" fill="#ffffff">CarrotChopped</text>
</g>
<!-- ChopCarrot&#45;&gt;CarrotChopped -->
<g id="edge27" class="edge">
<title>ChopCarrot&#45;&gt;CarrotChopped</title>
<path fill="none" stroke="#000000" d="M1021.5728,-2528.1523C1004.7009,-2512.3374 985.8779,-2494.6938 968.4883,-2478.3936"/>
<polygon fill="#000000" stroke="#000000" points="970.8227,-2475.7845 961.1332,-2471.4993 966.0355,-2480.8917 970.8227,-2475.7845"/>
</g>
<!-- FingerCut -->
<g id="node26" class="node">
<title>FingerCut</title>
<path fill="#767676" stroke="#767676" d="M1228.4795,-2486.492C1228.4795,-2486.492 1116.275,-2427.3784 1116.275,-2427.3784 1110.9666,-2424.5818 1110.9666,-2418.9885 1116.275,-2416.1918 1116.275,-2416.1918 1228.4795,-2357.0783 1228.4795,-2357.0783 1233.7878,-2354.2816 1244.4046,-2354.2816 1249.7129,-2357.0783 1249.7129,-2357.0783 1361.9174,-2416.1918 1361.9174,-2416.1918 1367.2258,-2418.9885 1367.2258,-2424.5818 1361.9174,-2427.3784 1361.9174,-2427.3784 1249.7129,-2486.492 1249.7129,-2486.492 1244.4046,-2489.2886 1233.7878,-2489.2886 1228.4795,-2486.492"/>
<text text-anchor="middle" x="1239.0962" y="-2415.1851" font-family="ING Me" font-size="22.00" fill="#ffffff">FingerCut</text>
</g>
<!-- ChopCarrot&#45;&gt;FingerCut -->
<g id="edge28" class="edge">
<title>ChopCarrot&#45;&gt;FingerCut</title>
<path fill="none" stroke="#000000" d="M1126.3032,-2528.1523C1144.6402,-2510.86 1165.2957,-2491.3812 1183.8722,-2473.863"/>
<polygon fill="#000000" stroke="#000000" points="1186.2757,-2476.4073 1191.1497,-2467.0001 1181.4731,-2471.3146 1186.2757,-2476.4073"/>
</g>
<!-- choppedCarrot -->
<g id="node25" class="node">
<title>choppedCarrot</title>
<ellipse fill="#3b823a" stroke="#3b823a" cx="1010.0962" cy="-2211.6309" rx="103.509" ry="103.509"/>
<text text-anchor="middle" x="1010.0962" y="-2205.0309" font-family="ING Me" font-size="22.00" fill="#ffffff">choppedCarrot</text>
</g>
<!-- CarrotChopped&#45;&gt;choppedCarrot -->
<g id="edge29" class="edge">
<title>CarrotChopped&#45;&gt;choppedCarrot</title>
<path fill="none" stroke="#000000" d="M936.7803,-2362.6862C944.0887,-2347.6284 952.1587,-2331.0015 960.1925,-2314.4494"/>
<polygon fill="#000000" stroke="#000000" points="963.4291,-2315.7965 964.6468,-2305.2719 957.1316,-2312.7399 963.4291,-2315.7965"/>
</g>
<!-- choppedCarrot&#45;&gt;FryVegetables -->
<g id="edge30" class="edge">
<title>choppedCarrot&#45;&gt;FryVegetables</title>
<path fill="none" stroke="#000000" d="M977.0172,-2113.1273C968.443,-2087.595 959.478,-2060.8986 951.832,-2038.1303"/>
<polygon fill="#000000" stroke="#000000" points="955.1424,-2036.9934 948.641,-2028.6279 948.5066,-2039.2219 955.1424,-2036.9934"/>
</g>
<!-- tomatoPaste -->
<g id="node27" class="node">
<title>tomatoPaste</title>
<ellipse fill="#3b823a" stroke="#3b823a" cx="1361.0962" cy="-1763.4894" rx="87.2096" ry="87.2096"/>
<text text-anchor="middle" x="1361.0962" y="-1756.8894" font-family="ING Me" font-size="22.00" fill="#ffffff">tomatoPaste</text>
</g>
<!-- tomatoPaste&#45;&gt;CreateRagu -->
<g id="edge31" class="edge">
<title>tomatoPaste&#45;&gt;CreateRagu</title>
<path fill="none" stroke="#000000" d="M1356.2468,-1676.1969C1351.8644,-1589.7034 1346.0962,-1453.4355 1346.0962,-1335.3701 1346.0962,-1335.3701 1346.0962,-1335.3701 1346.0962,-1179.7701 1346.0962,-981.7517 1368.9588,-923.0528 1303.0962,-736.3085 1299.8287,-727.0439 1295.3459,-717.7919 1290.3284,-708.9825"/>
<polygon fill="#000000" stroke="#000000" points="1293.2942,-707.1225 1285.1577,-700.3365 1287.2865,-710.7153 1293.2942,-707.1225"/>
</g>
<!-- onion -->
<g id="node28" class="node">
<title>onion</title>
<ellipse fill="#3b823a" stroke="#3b823a" cx="855.0962" cy="-2748.2224" rx="47.0004" ry="47.0004"/>
<text text-anchor="middle" x="855.0962" y="-2741.6224" font-family="ING Me" font-size="22.00" fill="#ffffff">onion</text>
</g>
<!-- onion&#45;&gt;ChopOnion -->
<g id="edge32" class="edge">
<title>onion&#45;&gt;ChopOnion</title>
<path fill="none" stroke="#000000" d="M820.8159,-2715.6871C796.4707,-2692.5812 763.1578,-2660.964 734.528,-2633.7916"/>
<polygon fill="#000000" stroke="#000000" points="736.6375,-2630.9682 726.9747,-2626.6228 731.8186,-2636.0456 736.6375,-2630.9682"/>
</g>
<!-- pasta -->
<g id="node29" class="node">
<title>pasta</title>
<ellipse fill="#3b823a" stroke="#3b823a" cx="555.0962" cy="-2748.2224" rx="43.0527" ry="43.0527"/>
<text text-anchor="middle" x="555.0962" y="-2741.6224" font-family="ING Me" font-size="22.00" fill="#ffffff">pasta</text>
</g>
<!-- pasta&#45;&gt;BoilPasta -->
<g id="edge33" class="edge">
<title>pasta&#45;&gt;BoilPasta</title>
<path fill="none" stroke="#000000" d="M516.0837,-2728.7915C463.7388,-2702.7202 369.2916,-2655.6791 299.5169,-2620.9266"/>
<polygon fill="#000000" stroke="#000000" points="300.7855,-2617.6484 290.2739,-2616.3229 297.6647,-2623.9142 300.7855,-2617.6484"/>
</g>
<!-- carrot -->
<g id="node30" class="node">
<title>carrot</title>
<ellipse fill="#3b823a" stroke="#3b823a" cx="1253.0962" cy="-2748.2224" rx="47.6668" ry="47.6668"/>
<text text-anchor="middle" x="1253.0962" y="-2741.6224" font-family="ING Me" font-size="22.00" fill="#ffffff">carrot</text>
</g>
<!-- carrot&#45;&gt;ChopCarrot -->
<g id="edge34" class="edge">
<title>carrot&#45;&gt;ChopCarrot</title>
<path fill="none" stroke="#000000" d="M1218.5832,-2715.2832C1194.4292,-2692.2307 1161.5515,-2660.8523 1133.2604,-2633.8513"/>
<polygon fill="#000000" stroke="#000000" points="1135.4459,-2631.099 1125.7953,-2626.7267 1130.613,-2636.1628 1135.4459,-2631.099"/>
</g>
<!-- ShoppedGroceries -->
<g id="node31" class="node">
<title>ShoppedGroceries</title>
<path fill="#3b823a" stroke="#3b823a" d="M1388.7365,-3006.6923C1388.7365,-3006.6923 1204.9719,-2944.1272 1204.9719,-2944.1272 1199.292,-2942.1934 1199.292,-2938.3259 1204.9719,-2936.3921 1204.9719,-2936.3921 1388.7365,-2873.8271 1388.7365,-2873.8271 1394.4164,-2871.8933 1405.776,-2871.8933 1411.4559,-2873.8271 1411.4559,-2873.8271 1595.2205,-2936.3921 1595.2205,-2936.3921 1600.9004,-2938.3259 1600.9004,-2942.1934 1595.2205,-2944.1272 1595.2205,-2944.1272 1411.4559,-3006.6923 1411.4559,-3006.6923 1405.776,-3008.626 1394.4164,-3008.626 1388.7365,-3006.6923"/>
<text text-anchor="middle" x="1400.0962" y="-2933.6597" font-family="ING Me" font-size="22.00" fill="#ffffff">ShoppedGroceries</text>
</g>
<!-- ShoppedGroceries&#45;&gt;tomatoPaste -->
<g id="edge41" class="edge">
<title>ShoppedGroceries&#45;&gt;tomatoPaste</title>
<path fill="none" stroke="#000000" d="M1411.2919,-2873.5977C1422.501,-2800.9752 1438.0962,-2681.2685 1438.0962,-2577.3851 1438.0962,-2577.3851 1438.0962,-2577.3851 1438.0962,-2211.6309 1438.0962,-2087.9846 1409.2724,-1947.8839 1386.8952,-1857.7487"/>
<polygon fill="#000000" stroke="#000000" points="1390.2344,-1856.6748 1384.4077,-1847.826 1383.4445,-1858.377 1390.2344,-1856.6748"/>
</g>
<!-- ShoppedGroceries&#45;&gt;onion -->
<g id="edge38" class="edge">
<title>ShoppedGroceries&#45;&gt;onion</title>
<path fill="none" stroke="#000000" d="M1298.5443,-2904.4767C1183.2558,-2863.8534 999.4864,-2799.1 909.013,-2767.2206"/>
<polygon fill="#000000" stroke="#000000" points="910.0975,-2763.8919 899.5026,-2763.8695 907.7711,-2770.494 910.0975,-2763.8919"/>
</g>
<!-- ShoppedGroceries&#45;&gt;pasta -->
<g id="edge40" class="edge">
<title>ShoppedGroceries&#45;&gt;pasta</title>
<path fill="none" stroke="#000000" d="M1220.3599,-2931.086C1023.334,-2918.3561 722.0245,-2890.2258 623.0962,-2833.8597 606.6733,-2824.5024 592.7393,-2809.4704 581.8423,-2794.593"/>
<polygon fill="#000000" stroke="#000000" points="584.7009,-2792.5734 576.1043,-2786.3807 578.9628,-2796.5827 584.7009,-2792.5734"/>
</g>
<!-- ShoppedGroceries&#45;&gt;carrot -->
<g id="edge37" class="edge">
<title>ShoppedGroceries&#45;&gt;carrot</title>
<path fill="none" stroke="#000000" d="M1357.3802,-2884.4566C1335.4858,-2855.8542 1309.1432,-2821.4408 1288.4118,-2794.3578"/>
<polygon fill="#000000" stroke="#000000" points="1291.0268,-2792.0159 1282.1692,-2786.2027 1285.4684,-2796.2707 1291.0268,-2792.0159"/>
</g>
<!-- mincedMeat -->
<g id="node32" class="node">
<title>mincedMeat</title>
<ellipse fill="#3b823a" stroke="#3b823a" cx="1225.0962" cy="-1530.3524" rx="89.135" ry="89.135"/>
<text text-anchor="middle" x="1225.0962" y="-1523.7524" font-family="ING Me" font-size="22.00" fill="#ffffff">mincedMeat</text>
</g>
<!-- ShoppedGroceries&#45;&gt;mincedMeat -->
<g id="edge35" class="edge">
<title>ShoppedGroceries&#45;&gt;mincedMeat</title>
<path fill="none" stroke="#000000" d="M1402.2321,-2870.5544C1404.6372,-2759.9691 1405.46,-2537.7542 1381.0962,-2351.3851 1351.4951,-2124.9533 1305.0684,-2075.677 1265.0962,-1850.8441 1251.9598,-1776.9553 1241.6258,-1692.7256 1234.7546,-1629.164"/>
<polygon fill="#000000" stroke="#000000" points="1238.2267,-1628.7154 1233.6817,-1619.145 1231.2665,-1629.4608 1238.2267,-1628.7154"/>
</g>
<!-- herbs -->
<g id="node33" class="node">
<title>herbs</title>
<ellipse fill="#3b823a" stroke="#3b823a" cx="1430.0962" cy="-1335.3701" rx="45.0082" ry="45.0082"/>
<text text-anchor="middle" x="1430.0962" y="-1328.7701" font-family="ING Me" font-size="22.00" fill="#ffffff">herbs</text>
</g>
<!-- ShoppedGroceries&#45;&gt;herbs -->
<g id="edge36" class="edge">
<title>ShoppedGroceries&#45;&gt;herbs</title>
<path fill="none" stroke="#000000" d="M1425.913,-2878.5442C1431.2299,-2864.0775 1436.3438,-2848.5846 1440.0962,-2833.8597 1468.5208,-2722.3184 1476.0962,-2692.4912 1476.0962,-2577.3851 1476.0962,-2577.3851 1476.0962,-2577.3851 1476.0962,-1763.4894 1476.0962,-1628.5368 1453.2207,-1471.0177 1439.7328,-1389.8706"/>
<polygon fill="#000000" stroke="#000000" points="1443.1639,-1389.1679 1438.0563,-1379.8855 1436.2606,-1390.3271 1443.1639,-1389.1679"/>
</g>
<!-- wine -->
<g id="node34" class="node">
<title>wine</title>
<ellipse fill="#3b823a" stroke="#3b823a" cx="1496.0962" cy="-1179.7701" rx="41.6012" ry="41.6012"/>
<text text-anchor="middle" x="1496.0962" y="-1173.1701" font-family="ING Me" font-size="22.00" fill="#ffffff">wine</text>
</g>
<!-- ShoppedGroceries&#45;&gt;wine -->
<g id="edge39" class="edge">
<title>ShoppedGroceries&#45;&gt;wine</title>
<path fill="none" stroke="#000000" d="M1443.016,-2884.3837C1453.2793,-2868.7379 1463.237,-2851.2392 1470.0962,-2833.8597 1512.5543,-2726.2811 1514.0962,-2693.0391 1514.0962,-2577.3851 1514.0962,-2577.3851 1514.0962,-2577.3851 1514.0962,-1530.3524 1514.0962,-1423.9787 1505.729,-1299.6884 1500.404,-1231.3599"/>
<polygon fill="#000000" stroke="#000000" points="1503.8852,-1230.9832 1499.6095,-1221.2895 1496.9069,-1231.5338 1503.8852,-1230.9832"/>
</g>
<!-- mincedMeat&#45;&gt;FryMeat -->
<g id="edge42" class="edge">
<title>mincedMeat&#45;&gt;FryMeat</title>
<path fill="none" stroke="#000000" d="M1163.9747,-1465.3892C1149.4786,-1450.4488 1133.9167,-1434.7809 1119.0962,-1420.5701 1109.1301,-1411.0141 1098.3645,-1401.0928 1087.7703,-1391.5427"/>
<polygon fill="#000000" stroke="#000000" points="1089.882,-1388.7353 1080.1002,-1384.665 1085.2087,-1393.9469 1089.882,-1388.7353"/>
</g>
<!-- herbs&#45;&gt;CreateRagu -->
<g id="edge43" class="edge">
<title>herbs&#45;&gt;CreateRagu</title>
<path fill="none" stroke="#000000" d="M1429.3485,-1290.0499C1426.6175,-1167.2114 1414.2571,-830.7848 1360.0962,-736.3085 1354.0217,-725.7124 1346.0455,-716.0188 1337.1351,-707.2768"/>
<polygon fill="#000000" stroke="#000000" points="1339.5164,-704.7118 1329.8073,-700.4709 1334.7526,-709.8408 1339.5164,-704.7118"/>
</g>
<!-- wine&#45;&gt;CreateRagu -->
<g id="edge44" class="edge">
<title>wine&#45;&gt;CreateRagu</title>
<path fill="none" stroke="#000000" d="M1500.7598,-1138.3155C1507.9882,-1053.7348 1512.6767,-858.9265 1421.0962,-736.3085 1402.0264,-710.7757 1373.2384,-692.4721 1344.5378,-679.5439"/>
<polygon fill="#000000" stroke="#000000" points="1345.8035,-676.2782 1335.2349,-675.533 1343.032,-682.7062 1345.8035,-676.2782"/>
</g>
</g>
</svg>
